# Blender 3.3.1
# www.blender.org
mtllib dry_grass1.mtl
o dry_grass1
v -0.800028 0.431704 0.395113
v -0.697753 0.845700 0.363991
v -0.800028 0.431704 0.052299
v -0.697753 0.845700 0.083421
v -0.462107 0.373993 0.395113
v -0.421188 0.798467 0.363991
v -0.462107 0.373993 0.052299
v -0.421188 0.798467 0.083421
v -0.796572 -0.011637 0.130339
v -0.796572 -0.011637 0.317073
v -0.612503 -0.043072 0.130339
v -0.612503 -0.043072 0.317073
v -1.115626 0.126480 0.574784
v -1.294506 0.474779 0.696518
v -1.182277 0.234216 0.256237
v -1.349056 0.562954 0.435809
v -0.824092 0.306840 0.574784
v -1.055906 0.622391 0.696518
v -0.890744 0.414576 0.256237
v -1.110456 0.710565 0.435809
v -0.917559 -0.045343 0.190283
v -0.881253 -0.104028 0.363799
v -0.758758 0.052900 0.190283
v -0.722452 -0.005785 0.363799
v -1.148087 0.390542 0.169363
v -1.156180 0.775819 -0.010028
v -1.128803 0.269560 -0.150814
v -1.140397 0.676803 -0.272070
v -0.807416 0.428301 0.175614
v -0.877364 0.806721 -0.004912
v -0.788132 0.307318 -0.144563
v -0.861582 0.707706 -0.266954
v -1.013624 -0.099146 0.079001
v -1.024128 -0.033246 0.253404
v -0.828057 -0.078579 0.082406
v -0.838561 -0.012679 0.256809
v -0.863388 0.442524 0.223706
v -0.760723 0.695564 0.400787
v -0.722881 0.881177 0.223706
v -0.760723 0.695564 0.046625
v -0.631067 0.402848 -0.011979
v -0.554295 0.852386 0.052680
v -0.411614 0.635943 0.046625
v -0.398746 0.363173 0.223706
v -0.385710 0.823595 0.223706
v -0.411614 0.635943 0.400787
v -0.631067 0.402848 0.459391
v -0.554295 0.852386 0.394732
v -0.817415 -0.040748 0.223706
v -0.709959 -0.059099 0.114694
v -0.602502 -0.077451 0.223706
v -0.709959 -0.059099 0.332718
v -0.541442 0.112182 0.086429
v -0.812079 0.158402 0.086429
v -0.812079 0.158402 0.360983
v -0.541442 0.112182 0.360983
v -1.203614 0.146531 0.415511
v -1.242191 0.320276 0.672916
v -1.362953 0.526985 0.577524
v -1.311049 0.431578 0.343824
v -1.049008 0.344596 0.196510
v -1.250762 0.670713 0.418605
v -1.009864 0.617908 0.343824
v -0.802755 0.394525 0.415511
v -1.072067 0.706944 0.577524
v -0.941006 0.506606 0.672916
v -0.957362 0.196460 0.634512
v -1.184258 0.563216 0.736443
v -0.899801 -0.103784 0.267282
v -0.828291 -0.012172 0.165987
v -0.714390 0.010922 0.267282
v -0.785901 -0.080690 0.368578
v -0.797124 0.198378 0.200258
v -1.030609 0.053931 0.200258
v -0.977229 -0.032353 0.455377
v -0.743744 0.112094 0.455377
v -1.202321 0.322971 0.008103
v -1.179631 0.638441 0.079867
v -1.181780 0.751269 -0.152497
v -1.159709 0.513454 -0.250908
v -0.954852 0.265755 -0.207721
v -1.002202 0.709749 -0.309111
v -0.807760 0.552462 -0.244451
v -0.733899 0.374889 0.016697
v -0.841866 0.788943 -0.146260
v -0.827683 0.677449 0.086325
v -0.981368 0.432106 0.232521
v -1.021443 0.830463 0.010354
v -1.031317 -0.097842 0.177411
v -0.916855 -0.124306 0.077585
v -0.814656 -0.073828 0.181386
v -0.929119 -0.047364 0.281212
v -0.797854 0.063989 -0.016661
v -1.070693 0.033749 -0.021667
v -1.086137 0.130642 0.234757
v -0.813298 0.160882 0.239763
v -0.825857 0.709762 0.223706
v -0.585658 0.668741 -0.019970
v -0.345460 0.627720 0.223706
v -0.585658 0.668741 0.467382
v -0.677295 0.132163 0.035853
v -0.543435 0.915980 0.223706
v -0.721336 -0.125718 0.223706
v -0.862467 0.163786 0.223706
v -0.492123 0.100539 0.223706
v -0.677295 0.132163 0.411559
v -1.334735 0.343285 0.509490
v -1.174886 0.548067 0.283064
v -0.920283 0.599689 0.509490
v -1.080132 0.394907 0.735917
v -0.922427 0.139992 0.152300
v -1.249049 0.667944 0.601365
v -0.780004 -0.090222 0.246803
v -1.045657 -0.017877 0.326855
v -0.726151 0.179787 0.326855
v -0.849381 0.021918 0.501410
v -1.236138 0.571407 -0.087808
v -0.980279 0.512251 -0.310950
v -0.751833 0.625085 -0.078922
v -1.007693 0.684242 0.144220
v -0.931122 0.028070 -0.065267
v -1.017996 0.829588 -0.172226
v -0.916469 -0.148631 0.203519
v -1.128368 0.073675 0.106756
v -0.755011 0.115056 0.113607
v -0.952256 0.160660 0.285629
vn -0.7105 0.0185 0.7035
vn -0.6631 0.2682 0.6988
vn -0.9490 0.3152 -0.0000
vn -0.9975 0.0700 -0.0000
vn -0.4681 0.6715 0.5745
vn -0.5729 0.8196 -0.0000
vn -0.4681 0.6715 -0.5745
vn -0.6631 0.2682 -0.6988
vn -0.7105 0.0185 -0.7035
vn 0.0254 0.1488 -0.9885
vn -0.0166 -0.0975 -0.9951
vn 0.1198 0.7013 -0.7027
vn 0.6644 0.4780 -0.5745
vn 0.7146 0.0329 -0.6988
vn 0.6764 -0.2183 -0.7035
vn 0.9998 -0.0176 -0.0000
vn 0.9643 -0.2650 -0.0000
vn 0.8124 0.5830 -0.0000
vn 0.6644 0.4780 0.5745
vn 0.7146 0.0329 0.6988
vn 0.6764 -0.2183 0.7035
vn 0.0254 0.1488 0.9885
vn -0.0166 -0.0975 0.9951
vn 0.1198 0.7013 0.7027
vn -0.0441 -0.2584 -0.9650
vn -0.7166 -0.1494 -0.6813
vn 0.6264 -0.3788 -0.6813
vn 0.5051 -0.6184 -0.6020
vn -0.1147 -0.6715 -0.7321
vn -0.6817 -0.4157 -0.6020
vn 0.1683 0.9857 -0.0000
vn -0.1683 -0.9857 -0.0000
vn -0.8363 -0.5482 -0.0000
vn 0.6070 -0.7947 -0.0000
vn 0.5051 -0.6184 0.6020
vn -0.1147 -0.6715 0.7321
vn -0.6817 -0.4157 0.6020
vn -0.9954 -0.0960 -0.0000
vn -0.7166 -0.1494 0.6813
vn 0.9071 -0.4209 -0.0000
vn 0.6264 -0.3788 0.6813
vn -0.0441 -0.2584 0.9650
vn -0.4051 -0.6805 0.6106
vn -0.5335 -0.4657 0.7061
vn -0.9148 -0.3999 0.0562
vn -0.7907 -0.6108 -0.0411
vn -0.6622 -0.0195 0.7491
vn -0.9449 0.1943 0.2634
vn -0.8852 0.3409 -0.3166
vn -0.8052 -0.0265 -0.5924
vn -0.6782 -0.2389 -0.6949
vn -0.2665 0.4307 -0.8623
vn -0.1388 0.2243 -0.9646
vn -0.4848 0.7837 -0.3883
vn 0.0901 0.9443 -0.3166
vn 0.3832 0.7087 -0.5924
vn 0.5166 0.5002 -0.6949
vn 0.7663 0.6401 0.0562
vn 0.8996 0.4349 -0.0411
vn 0.2480 0.9323 0.2634
vn 0.3131 0.5838 0.7491
vn 0.6549 0.2695 0.7061
vn 0.7898 0.0587 0.6106
vn 0.1179 -0.1905 0.9746
vn 0.2476 -0.4003 0.8823
vn -0.2121 0.3429 0.9151
vn -0.0371 0.0599 -0.9975
vn -0.5510 -0.3872 -0.7392
vn 0.5925 0.3202 -0.7392
vn 0.6630 0.0130 -0.7485
vn 0.2198 -0.3553 -0.9085
vn -0.3076 -0.5875 -0.7485
vn -0.4889 0.7902 0.3695
vn 0.4889 -0.7902 -0.3695
vn -0.2327 -0.9350 -0.2675
vn 0.9406 -0.2092 -0.2675
vn 0.8849 -0.3457 0.3121
vn 0.4880 -0.7889 0.3735
vn -0.0857 -0.9462 0.3121
vn -0.6622 -0.7409 -0.1120
vn -0.2896 -0.8098 0.5102
vn 0.9586 0.2618 -0.1120
vn 0.8539 -0.1024 0.5102
vn 0.3335 -0.5390 0.7735
vn -0.7288 0.0763 0.6804
vn -0.7485 0.3125 0.5849
vn -0.9969 0.0323 -0.0722
vn -0.9793 -0.2017 0.0172
vn -0.6585 0.6830 0.3162
vn -0.7657 0.5850 -0.2672
vn -0.5940 0.2783 -0.7548
vn -0.6699 -0.1807 -0.7202
vn -0.6497 -0.4202 -0.6335
vn 0.0410 -0.2077 -0.9773
vn 0.0655 -0.4433 -0.8940
vn -0.0293 0.4148 -0.9095
vn 0.5456 0.4046 -0.7339
vn 0.7188 -0.0267 -0.6947
vn 0.7484 -0.2652 -0.6079
vn 0.9676 0.2500 -0.0362
vn 0.9984 0.0175 0.0535
vn 0.6282 0.7395 -0.2416
vn 0.4811 0.8093 0.3371
vn 0.6402 0.4664 0.6104
vn 0.6693 0.2313 0.7061
vn -0.0702 0.4899 0.8689
vn -0.0464 0.2590 0.9647
vn -0.1082 0.9098 0.4007
vn 0.0796 -0.5844 -0.8076
vn -0.6128 -0.5646 -0.5529
vn 0.7411 -0.4146 -0.5281
vn 0.6827 -0.6336 -0.3640
vn 0.1069 -0.8913 -0.4406
vn -0.5137 -0.7662 -0.3859
vn -0.0964 0.9292 -0.3569
vn 0.0964 -0.9292 0.3569
vn -0.6618 -0.7136 0.2298
vn 0.7932 -0.5523 0.2565
vn 0.6149 -0.2088 0.7604
vn 0.0245 -0.3746 0.9269
vn -0.5815 -0.3414 0.7385
vn -0.9336 -0.3501 0.0761
vn -0.6894 -0.0838 0.7195
vn 0.9842 -0.1375 0.1113
vn 0.6645 0.0662 0.7444
vn -0.0290 0.0967 0.9949
vt 0.375000 0.000000
vt 0.375000 1.000000
vt 0.625000 0.000000
vt 0.625000 1.000000
vt 0.875000 0.750000
vt 0.416667 0.250000
vt 0.625000 0.250000
vt 0.875000 0.500000
vt 0.416667 0.750000
vt 0.625000 0.750000
vt 0.416667 0.500000
vt 0.625000 0.500000
vt 0.125000 0.500000
vt 0.375000 0.250000
vt 0.125000 0.750000
vt 0.375000 0.000000
vt 0.375000 1.000000
vt 0.375000 0.500000
vt 0.375000 0.750000
vt 0.375000 0.000000
vt 0.375000 1.000000
vt 0.625000 0.000000
vt 0.625000 1.000000
vt 0.875000 0.750000
vt 0.416667 0.250000
vt 0.625000 0.250000
vt 0.875000 0.500000
vt 0.416667 0.750000
vt 0.625000 0.750000
vt 0.416667 0.500000
vt 0.625000 0.500000
vt 0.125000 0.500000
vt 0.375000 0.250000
vt 0.125000 0.750000
vt 0.375000 0.000000
vt 0.375000 1.000000
vt 0.375000 0.500000
vt 0.375000 0.750000
vt 0.375000 0.000000
vt 0.375000 1.000000
vt 0.625000 0.000000
vt 0.625000 1.000000
vt 0.875000 0.750000
vt 0.416667 0.250000
vt 0.625000 0.250000
vt 0.875000 0.500000
vt 0.416667 0.750000
vt 0.625000 0.750000
vt 0.416667 0.500000
vt 0.625000 0.500000
vt 0.125000 0.500000
vt 0.375000 0.250000
vt 0.125000 0.750000
vt 0.375000 0.000000
vt 0.375000 1.000000
vt 0.375000 0.500000
vt 0.375000 0.750000
vt 0.413194 0.125000
vt 0.500000 0.000000
vt 0.500000 1.000000
vt 0.625000 0.125000
vt 0.875000 0.625000
vt 0.505208 0.250000
vt 0.416667 0.375000
vt 0.625000 0.375000
vt 0.750000 0.500000
vt 0.505208 0.500000
vt 0.416667 0.625000
vt 0.625000 0.625000
vt 0.505208 0.750000
vt 0.413194 0.875000
vt 0.625000 0.875000
vt 0.750000 0.750000
vt 0.125000 0.625000
vt 0.375000 0.125000
vt 0.375000 0.375000
vt 0.250000 0.500000
vt 0.340278 0.625000
vt 0.250000 0.750000
vt 0.375000 0.875000
vt 0.379340 0.500000
vt 0.380208 0.250000
vt 0.375000 0.000000
vt 0.375000 1.000000
vt 0.379340 0.750000
vt 0.413194 0.125000
vt 0.500000 0.000000
vt 0.500000 1.000000
vt 0.625000 0.125000
vt 0.875000 0.625000
vt 0.505208 0.250000
vt 0.416667 0.375000
vt 0.625000 0.375000
vt 0.750000 0.500000
vt 0.505208 0.500000
vt 0.416667 0.625000
vt 0.625000 0.625000
vt 0.505208 0.750000
vt 0.413194 0.875000
vt 0.625000 0.875000
vt 0.750000 0.750000
vt 0.125000 0.625000
vt 0.375000 0.125000
vt 0.375000 0.375000
vt 0.250000 0.500000
vt 0.340278 0.625000
vt 0.250000 0.750000
vt 0.375000 0.875000
vt 0.379340 0.500000
vt 0.380208 0.250000
vt 0.375000 0.000000
vt 0.375000 1.000000
vt 0.379340 0.750000
vt 0.413194 0.125000
vt 0.500000 0.000000
vt 0.500000 1.000000
vt 0.625000 0.125000
vt 0.875000 0.625000
vt 0.505208 0.250000
vt 0.416667 0.375000
vt 0.625000 0.375000
vt 0.750000 0.500000
vt 0.505208 0.500000
vt 0.416667 0.625000
vt 0.625000 0.625000
vt 0.505208 0.750000
vt 0.413194 0.875000
vt 0.625000 0.875000
vt 0.750000 0.750000
vt 0.125000 0.625000
vt 0.375000 0.125000
vt 0.375000 0.375000
vt 0.250000 0.500000
vt 0.340278 0.625000
vt 0.250000 0.750000
vt 0.375000 0.875000
vt 0.379340 0.500000
vt 0.380208 0.250000
vt 0.375000 0.000000
vt 0.375000 1.000000
vt 0.379340 0.750000
vt 0.504340 0.125000
vt 0.505208 0.375000
vt 0.505208 0.625000
vt 0.504340 0.875000
vt 0.380208 0.375000
vt 0.750000 0.625000
vt 0.246528 0.625000
vt 0.379340 0.125000
vt 0.376736 0.625000
vt 0.379340 0.875000
vt 0.504340 0.125000
vt 0.505208 0.375000
vt 0.505208 0.625000
vt 0.504340 0.875000
vt 0.380208 0.375000
vt 0.750000 0.625000
vt 0.246528 0.625000
vt 0.379340 0.125000
vt 0.376736 0.625000
vt 0.379340 0.875000
vt 0.504340 0.125000
vt 0.505208 0.375000
vt 0.505208 0.625000
vt 0.504340 0.875000
vt 0.380208 0.375000
vt 0.750000 0.625000
vt 0.246528 0.625000
vt 0.379340 0.125000
vt 0.376736 0.625000
vt 0.379340 0.875000
s 1
usemtl grass
f 1/1/1 38/59/2 97/142/3 37/58/4
f 38/59/2 2/3/5 39/61/6 97/142/3
f 97/142/3 39/61/6 4/7/7 40/63/8
f 37/58/4 97/142/3 40/63/8 3/6/9
f 3/6/9 40/63/8 98/143/10 41/64/11
f 40/63/8 4/7/7 42/65/12 98/143/10
f 98/143/10 42/65/12 8/12/13 43/67/14
f 41/64/11 98/143/10 43/67/14 7/11/15
f 7/11/15 43/67/14 99/144/16 44/68/17
f 43/67/14 8/12/13 45/69/18 99/144/16
f 99/144/16 45/69/18 6/10/19 46/70/20
f 44/68/17 99/144/16 46/70/20 5/9/21
f 5/9/21 46/70/20 100/145/22 47/71/23
f 46/70/20 6/10/19 48/72/24 100/145/22
f 100/145/22 48/72/24 2/4/5 38/60/2
f 47/71/23 100/145/22 38/60/2 1/2/1
f 3/6/9 41/64/11 101/146/25 54/82/26
f 41/64/11 7/11/15 53/81/27 101/146/25
f 101/146/25 53/81/27 11/18/28 50/76/29
f 54/82/26 101/146/25 50/76/29 9/14/30
f 8/12/13 42/66/12 102/147/31 45/69/18
f 42/66/12 4/8/7 39/62/6 102/147/31
f 102/147/31 39/62/6 2/5/5 48/73/24
f 45/69/18 102/147/31 48/73/24 6/10/19
f 9/13/30 50/77/29 103/148/32 49/74/33
f 50/77/29 11/18/28 51/78/34 103/148/32
f 103/148/32 51/78/34 12/19/35 52/79/36
f 49/74/33 103/148/32 52/79/36 10/15/37
f 1/1/1 37/58/4 104/149/38 55/83/39
f 37/58/4 3/6/9 54/82/26 104/149/38
f 104/149/38 54/82/26 9/14/30 49/75/33
f 55/83/39 104/149/38 49/75/33 10/16/37
f 7/11/15 44/68/17 105/150/40 53/81/27
f 44/68/17 5/9/21 56/85/41 105/150/40
f 105/150/40 56/85/41 12/19/35 51/78/34
f 53/81/27 105/150/40 51/78/34 11/18/28
f 5/9/21 47/71/23 106/151/42 56/85/41
f 47/71/23 1/2/1 55/84/39 106/151/42
f 106/151/42 55/84/39 10/17/37 52/80/36
f 56/85/41 106/151/42 52/80/36 12/19/35
f 13/20/43 58/87/44 107/152/45 57/86/46
f 58/87/44 14/22/47 59/89/48 107/152/45
f 107/152/45 59/89/48 16/26/49 60/91/50
f 57/86/46 107/152/45 60/91/50 15/25/51
f 15/25/51 60/91/50 108/153/52 61/92/53
f 60/91/50 16/26/49 62/93/54 108/153/52
f 108/153/52 62/93/54 20/31/55 63/95/56
f 61/92/53 108/153/52 63/95/56 19/30/57
f 19/30/57 63/95/56 109/154/58 64/96/59
f 63/95/56 20/31/55 65/97/60 109/154/58
f 109/154/58 65/97/60 18/29/61 66/98/62
f 64/96/59 109/154/58 66/98/62 17/28/63
f 17/28/63 66/98/62 110/155/64 67/99/65
f 66/98/62 18/29/61 68/100/66 110/155/64
f 110/155/64 68/100/66 14/23/47 58/88/44
f 67/99/65 110/155/64 58/88/44 13/21/43
f 15/25/51 61/92/53 111/156/67 74/110/68
f 61/92/53 19/30/57 73/109/69 111/156/67
f 111/156/67 73/109/69 23/37/70 70/104/71
f 74/110/68 111/156/67 70/104/71 21/33/72
f 20/31/55 62/94/54 112/157/73 65/97/60
f 62/94/54 16/27/49 59/90/48 112/157/73
f 112/157/73 59/90/48 14/24/47 68/101/66
f 65/97/60 112/157/73 68/101/66 18/29/61
f 21/32/72 70/105/71 113/158/74 69/102/75
f 70/105/71 23/37/70 71/106/76 113/158/74
f 113/158/74 71/106/76 24/38/77 72/107/78
f 69/102/75 113/158/74 72/107/78 22/34/79
f 13/20/43 57/86/46 114/159/80 75/111/81
f 57/86/46 15/25/51 74/110/68 114/159/80
f 114/159/80 74/110/68 21/33/72 69/103/75
f 75/111/81 114/159/80 69/103/75 22/35/79
f 19/30/57 64/96/59 115/160/82 73/109/69
f 64/96/59 17/28/63 76/113/83 115/160/82
f 115/160/82 76/113/83 24/38/77 71/106/76
f 73/109/69 115/160/82 71/106/76 23/37/70
f 17/28/63 67/99/65 116/161/84 76/113/83
f 67/99/65 13/21/43 75/112/81 116/161/84
f 116/161/84 75/112/81 22/36/79 72/108/78
f 76/113/83 116/161/84 72/108/78 24/38/77
f 25/39/85 78/115/86 117/162/87 77/114/88
f 78/115/86 26/41/89 79/117/90 117/162/87
f 117/162/87 79/117/90 28/45/91 80/119/92
f 77/114/88 117/162/87 80/119/92 27/44/93
f 27/44/93 80/119/92 118/163/94 81/120/95
f 80/119/92 28/45/91 82/121/96 118/163/94
f 118/163/94 82/121/96 32/50/97 83/123/98
f 81/120/95 118/163/94 83/123/98 31/49/99
f 31/49/99 83/123/98 119/164/100 84/124/101
f 83/123/98 32/50/97 85/125/102 119/164/100
f 119/164/100 85/125/102 30/48/103 86/126/104
f 84/124/101 119/164/100 86/126/104 29/47/105
f 29/47/105 86/126/104 120/165/106 87/127/107
f 86/126/104 30/48/103 88/128/108 120/165/106
f 120/165/106 88/128/108 26/42/89 78/116/86
f 87/127/107 120/165/106 78/116/86 25/40/85
f 27/44/93 81/120/95 121/166/109 94/138/110
f 81/120/95 31/49/99 93/137/111 121/166/109
f 121/166/109 93/137/111 35/56/112 90/132/113
f 94/138/110 121/166/109 90/132/113 33/52/114
f 32/50/97 82/122/96 122/167/115 85/125/102
f 82/122/96 28/46/91 79/118/90 122/167/115
f 122/167/115 79/118/90 26/43/89 88/129/108
f 85/125/102 122/167/115 88/129/108 30/48/103
f 33/51/114 90/133/113 123/168/116 89/130/117
f 90/133/113 35/56/112 91/134/118 123/168/116
f 123/168/116 91/134/118 36/57/119 92/135/120
f 89/130/117 123/168/116 92/135/120 34/53/121
f 25/39/85 77/114/88 124/169/122 95/139/123
f 77/114/88 27/44/93 94/138/110 124/169/122
f 124/169/122 94/138/110 33/52/114 89/131/117
f 95/139/123 124/169/122 89/131/117 34/54/121
f 31/49/99 84/124/101 125/170/124 93/137/111
f 84/124/101 29/47/105 96/141/125 125/170/124
f 125/170/124 96/141/125 36/57/119 91/134/118
f 93/137/111 125/170/124 91/134/118 35/56/112
f 29/47/105 87/127/107 126/171/126 96/141/125
f 87/127/107 25/40/85 95/140/123 126/171/126
f 126/171/126 95/140/123 34/55/121 92/136/120
f 96/141/125 126/171/126 92/136/120 36/57/119
