# Blender 3.3.1
# www.blender.org
mtllib sceptre.mtl
o sceptre
v 0.639454 0.690506 -0.322570
v 0.639454 0.718550 0.629109
v 0.646027 0.689858 -0.322570
v 0.651498 0.717364 0.629109
v 0.652348 0.687941 -0.322570
v 0.663080 0.713850 0.629109
v 0.658173 0.684828 -0.322570
v 0.673753 0.708145 0.629109
v 0.663279 0.680637 -0.322570
v 0.683109 0.700467 0.629109
v 0.667469 0.675532 -0.322570
v 0.690786 0.691112 0.629109
v 0.670582 0.669707 -0.322570
v 0.696491 0.680439 0.629109
v 0.672500 0.663386 -0.322570
v 0.700005 0.668857 0.629109
v 0.673147 0.656813 -0.322570
v 0.701191 0.656813 0.629109
v 0.672500 0.650240 -0.322570
v 0.700005 0.644769 0.629109
v 0.670582 0.643919 -0.322570
v 0.696491 0.633187 0.629109
v 0.667469 0.638094 -0.322570
v 0.690786 0.622514 0.629109
v 0.663279 0.632988 -0.322570
v 0.683109 0.613158 0.629109
v 0.658173 0.628798 -0.322570
v 0.673753 0.605481 0.629109
v 0.652348 0.625685 -0.322570
v 0.663080 0.599776 0.629109
v 0.646027 0.623767 -0.322570
v 0.651498 0.596262 0.629109
v 0.639454 0.623120 -0.322570
v 0.639454 0.595076 0.629109
v 0.632881 0.623767 -0.322570
v 0.627410 0.596262 0.629109
v 0.626560 0.625685 -0.322570
v 0.615828 0.599776 0.629109
v 0.620735 0.628798 -0.322570
v 0.605155 0.605481 0.629109
v 0.615629 0.632988 -0.322570
v 0.595800 0.613158 0.629109
v 0.611439 0.638094 -0.322570
v 0.588122 0.622514 0.629109
v 0.608326 0.643919 -0.322570
v 0.582417 0.633187 0.629109
v 0.606408 0.650240 -0.322570
v 0.578903 0.644769 0.629109
v 0.605761 0.656813 -0.322570
v 0.577717 0.656813 0.629109
v 0.606408 0.663386 -0.322570
v 0.578903 0.668857 0.629109
v 0.608326 0.669707 -0.322570
v 0.582417 0.680439 0.629109
v 0.611439 0.675532 -0.322570
v 0.588122 0.691112 0.629109
v 0.615629 0.680637 -0.322570
v 0.595800 0.700467 0.629109
v 0.620735 0.684828 -0.322570
v 0.605155 0.708145 0.629109
v 0.626560 0.687941 -0.322570
v 0.615828 0.713850 0.629109
v 0.632881 0.689858 -0.322570
v 0.627410 0.717364 0.629109
v 0.639454 0.837695 0.742875
v 0.674742 0.834220 0.742875
v 0.708675 0.823926 0.742875
v 0.739947 0.807211 0.742875
v 0.767357 0.784716 0.742875
v 0.789852 0.757306 0.742875
v 0.806567 0.726034 0.742875
v 0.816860 0.692101 0.742875
v 0.820336 0.656813 0.742875
v 0.816860 0.621525 0.742875
v 0.806567 0.587592 0.742875
v 0.789852 0.556320 0.742875
v 0.767357 0.528910 0.742875
v 0.739947 0.506415 0.742875
v 0.708675 0.489700 0.742875
v 0.674742 0.479406 0.742875
v 0.639454 0.475931 0.742875
v 0.604166 0.479406 0.742875
v 0.570233 0.489700 0.742875
v 0.538961 0.506415 0.742875
v 0.511551 0.528910 0.742875
v 0.489056 0.556320 0.742875
v 0.472341 0.587592 0.742875
v 0.462047 0.621525 0.742875
v 0.458572 0.656813 0.742875
v 0.462047 0.692101 0.742875
v 0.472341 0.726034 0.742875
v 0.489056 0.757306 0.742875
v 0.511551 0.784716 0.742875
v 0.538961 0.807211 0.742875
v 0.570233 0.823926 0.742875
v 0.604166 0.834220 0.742875
v 0.490847 0.686373 0.669584
v 0.499469 0.714797 0.669584
v 0.723633 0.782796 0.669584
v 0.746594 0.763953 0.669584
v 0.746594 0.549673 0.669584
v 0.723633 0.530830 0.669584
v 0.513471 0.572634 0.669584
v 0.499469 0.598829 0.669584
v 0.581470 0.796798 0.669584
v 0.609894 0.805420 0.669584
v 0.790973 0.656813 0.669584
v 0.788061 0.627253 0.669584
v 0.609894 0.508206 0.669584
v 0.581470 0.516828 0.669584
v 0.513471 0.740992 0.669584
v 0.765437 0.740992 0.669584
v 0.697438 0.516828 0.669584
v 0.490847 0.627253 0.669584
v 0.639454 0.808332 0.669584
v 0.669014 0.805420 0.669584
v 0.779439 0.598829 0.669584
v 0.555275 0.530830 0.669584
v 0.532314 0.763953 0.669584
v 0.779439 0.714797 0.669584
v 0.669014 0.508206 0.669584
v 0.487935 0.656813 0.669584
v 0.697438 0.796798 0.669584
v 0.765437 0.572634 0.669584
v 0.532314 0.549673 0.669584
v 0.555275 0.782796 0.669584
v 0.788061 0.686373 0.669584
v 0.639454 0.505294 0.669584
v 0.639454 0.656813 0.685283
v 0.767794 0.563570 0.783325
v 0.590433 0.505941 0.783325
v 0.480817 0.656813 0.783326
v 0.590433 0.807685 0.783325
v 0.767794 0.750056 0.783325
v 0.688475 0.505941 0.941964
v 0.511114 0.563570 0.941964
v 0.511114 0.750056 0.941964
v 0.688475 0.807685 0.941964
v 0.798091 0.656813 0.941963
v 0.610641 0.568133 0.711771
v 0.714890 0.602006 0.711771
v 0.686077 0.513325 0.769399
v 0.790326 0.656813 0.769399
v 0.714890 0.711620 0.711771
v 0.546210 0.656813 0.711772
v 0.517396 0.568133 0.769399
v 0.610641 0.745493 0.711771
v 0.517396 0.745493 0.769399
v 0.686077 0.800300 0.769399
v 0.808135 0.602006 0.862644
v 0.808135 0.711620 0.862644
v 0.639454 0.479452 0.862644
v 0.743704 0.513325 0.862644
v 0.470773 0.602006 0.862644
v 0.535203 0.513325 0.862644
v 0.535203 0.800301 0.862644
v 0.470773 0.711620 0.862644
v 0.743704 0.800301 0.862644
v 0.639454 0.834174 0.862644
v 0.761512 0.568133 0.955890
v 0.592831 0.513325 0.955890
v 0.488582 0.656813 0.955890
v 0.592831 0.800300 0.955890
v 0.761512 0.745493 0.955890
v 0.668267 0.568133 1.053935
v 0.732698 0.656813 1.053935
v 0.564018 0.602006 1.053935
v 0.564018 0.711620 1.053935
v 0.668267 0.745493 1.053935
v 0.647675 0.682115 1.100018
v 0.617931 0.672450 1.100018
v 0.617931 0.641176 1.100018
v 0.647675 0.631511 1.100018
v 0.666058 0.656813 1.100018
vn -0.0000 0.7177 -0.6963
vn -0.0000 0.8211 -0.5708
vn 0.1602 0.8053 -0.5708
vn 0.1400 0.7039 -0.6963
vn 0.3142 0.7586 -0.5708
vn 0.2747 0.6631 -0.6963
vn 0.4562 0.6827 -0.5708
vn 0.3987 0.5968 -0.6963
vn 0.5806 0.5806 -0.5708
vn 0.5075 0.5075 -0.6963
vn 0.6827 0.4562 -0.5708
vn 0.5968 0.3987 -0.6963
vn 0.7586 0.3142 -0.5708
vn 0.6631 0.2747 -0.6963
vn 0.8053 0.1602 -0.5708
vn 0.7039 0.1400 -0.6963
vn 0.8211 -0.0000 -0.5708
vn 0.7177 -0.0000 -0.6963
vn 0.8053 -0.1602 -0.5708
vn 0.7039 -0.1400 -0.6963
vn 0.7586 -0.3142 -0.5708
vn 0.6631 -0.2747 -0.6963
vn 0.6827 -0.4562 -0.5708
vn 0.5968 -0.3987 -0.6963
vn 0.5806 -0.5806 -0.5708
vn 0.5075 -0.5075 -0.6963
vn 0.4562 -0.6827 -0.5708
vn 0.3987 -0.5968 -0.6963
vn 0.3142 -0.7586 -0.5708
vn 0.2747 -0.6631 -0.6963
vn 0.1602 -0.8053 -0.5708
vn 0.1400 -0.7039 -0.6963
vn -0.0000 -0.8211 -0.5708
vn -0.0000 -0.7177 -0.6963
vn -0.1602 -0.8053 -0.5708
vn -0.1400 -0.7039 -0.6963
vn -0.3142 -0.7586 -0.5708
vn -0.2747 -0.6631 -0.6963
vn -0.4562 -0.6827 -0.5708
vn -0.3987 -0.5968 -0.6963
vn -0.5806 -0.5806 -0.5708
vn -0.5075 -0.5075 -0.6963
vn -0.6827 -0.4562 -0.5708
vn -0.5968 -0.3987 -0.6963
vn -0.7586 -0.3142 -0.5708
vn -0.6631 -0.2747 -0.6963
vn -0.8053 -0.1602 -0.5708
vn -0.7039 -0.1400 -0.6963
vn -0.8211 -0.0000 -0.5708
vn -0.7177 -0.0000 -0.6963
vn -0.8053 0.1602 -0.5708
vn -0.7039 0.1400 -0.6963
vn -0.7586 0.3142 -0.5708
vn -0.6631 0.2747 -0.6963
vn -0.6827 0.4562 -0.5708
vn -0.5968 0.3987 -0.6963
vn -0.5806 0.5806 -0.5708
vn -0.5075 0.5075 -0.6963
vn -0.4562 0.6827 -0.5708
vn -0.3987 0.5968 -0.6963
vn -0.3142 0.7586 -0.5708
vn -0.2747 0.6631 -0.6963
vn -0.6770 0.2804 -0.6805
vn -0.7187 0.1430 -0.6805
vn -0.8270 0.1645 0.5376
vn -0.7790 0.3227 0.5376
vn -0.1602 0.8053 -0.5708
vn -0.1400 0.7039 -0.6963
vn 0.1645 0.8270 0.5376
vn -0.0000 0.8432 0.5376
vn -0.1645 0.8270 0.5376
vn -0.3227 0.7790 0.5376
vn -0.4684 0.7011 0.5376
vn -0.5962 0.5962 0.5376
vn -0.7011 0.4684 0.5376
vn -0.8432 -0.0000 0.5376
vn -0.8270 -0.1645 0.5376
vn -0.7790 -0.3227 0.5376
vn -0.7011 -0.4684 0.5376
vn -0.5962 -0.5962 0.5376
vn -0.4684 -0.7011 0.5376
vn -0.3227 -0.7790 0.5376
vn -0.1645 -0.8270 0.5376
vn -0.0000 -0.8432 0.5376
vn 0.1645 -0.8270 0.5376
vn 0.3227 -0.7790 0.5376
vn 0.4684 -0.7011 0.5376
vn 0.5962 -0.5962 0.5376
vn 0.7011 -0.4684 0.5376
vn 0.7790 -0.3227 0.5376
vn 0.8270 -0.1645 0.5376
vn 0.8432 -0.0000 0.5376
vn 0.8270 0.1645 0.5376
vn 0.7790 0.3227 0.5376
vn 0.7011 0.4684 0.5376
vn 0.5962 0.5962 0.5376
vn 0.4684 0.7011 0.5376
vn 0.3227 0.7790 0.5376
vn 0.5182 0.5181 -0.6805
vn 0.4071 0.6093 -0.6805
vn 0.4071 -0.6093 -0.6805
vn 0.5181 -0.5181 -0.6805
vn -0.6770 -0.2804 -0.6805
vn -0.6093 -0.4071 -0.6805
vn -0.1430 0.7187 -0.6805
vn -0.2804 0.6770 -0.6805
vn 0.7187 -0.1430 -0.6805
vn 0.7328 -0.0000 -0.6805
vn -0.2804 -0.6770 -0.6805
vn -0.1430 -0.7187 -0.6805
vn -0.6093 0.4071 -0.6805
vn 0.6093 0.4071 -0.6805
vn 0.2804 -0.6770 -0.6805
vn -0.7187 -0.1430 -0.6805
vn 0.1430 0.7187 -0.6805
vn -0.0000 0.7328 -0.6805
vn 0.6770 -0.2804 -0.6805
vn -0.4071 -0.6093 -0.6805
vn -0.5181 0.5181 -0.6805
vn 0.6770 0.2804 -0.6805
vn 0.1430 -0.7187 -0.6805
vn -0.7328 -0.0000 -0.6805
vn 0.2804 0.6770 -0.6805
vn 0.6093 -0.4071 -0.6805
vn -0.5181 -0.5181 -0.6805
vn -0.4071 0.6093 -0.6805
vn 0.7187 0.1430 -0.6805
vn -0.0000 -0.7328 -0.6805
vn 0.1024 -0.3151 -0.9435
vn 0.7002 -0.2680 -0.6617
vn -0.2680 -0.1947 -0.9435
vn -0.2680 0.1947 -0.9435
vn 0.1024 0.3151 -0.9435
vn 0.9050 -0.2680 -0.3304
vn 0.0247 -0.9435 -0.3304
vn -0.8897 -0.3151 -0.3304
vn -0.5746 0.7488 -0.3304
vn 0.5346 0.7779 -0.3304
vn 0.8026 -0.5831 -0.1256
vn -0.3066 -0.9435 -0.1256
vn -0.9921 -0.0000 -0.1256
vn -0.3066 0.9435 -0.1256
vn 0.8026 0.5831 -0.1256
vn 0.5110 -0.7090 0.4860
vn -0.5164 -0.7051 0.4860
vn -0.8302 0.2732 0.4860
vn 0.0033 0.8739 0.4860
vn 0.8322 0.2669 0.4860
vn 0.6412 0.4659 0.6098
vn 0.5110 0.7090 0.4860
vn -0.2449 0.7538 0.6098
vn -0.5164 0.7051 0.4860
vn -0.7926 -0.0000 0.6098
vn -0.8302 -0.2732 0.4860
vn -0.2449 -0.7538 0.6098
vn 0.0033 -0.8739 0.4860
vn 0.6412 -0.4659 0.6098
vn 0.8322 -0.2669 0.4860
vn 0.8897 0.3151 0.3304
vn 0.7947 0.5773 0.1876
vn 0.5746 0.7488 0.3304
vn -0.0247 0.9435 0.3304
vn -0.3035 0.9342 0.1876
vn -0.5346 0.7779 0.3304
vn -0.9050 0.2680 0.3304
vn -0.9822 -0.0000 0.1876
vn -0.9050 -0.2680 0.3304
vn -0.5346 -0.7779 0.3304
vn -0.3035 -0.9342 0.1876
vn -0.0247 -0.9435 0.3304
vn 0.5746 -0.7488 0.3304
vn 0.7947 -0.5773 0.1876
vn 0.8897 -0.3151 0.3304
vn 0.3066 0.9435 0.1256
vn 0.3035 0.9342 -0.1876
vn 0.0247 0.9435 -0.3304
vn -0.8026 0.5831 0.1256
vn -0.7947 0.5773 -0.1876
vn -0.8897 0.3151 -0.3304
vn -0.8026 -0.5831 0.1256
vn -0.7947 -0.5773 -0.1876
vn -0.5746 -0.7488 -0.3304
vn 0.3066 -0.9435 0.1256
vn 0.3035 -0.9342 -0.1876
vn 0.5346 -0.7779 -0.3304
vn 0.9921 -0.0000 0.1256
vn 0.9822 -0.0000 -0.1876
vn 0.9050 0.2680 -0.3304
vn 0.4713 0.5831 -0.6617
vn 0.1876 0.5773 -0.7947
vn -0.0385 0.7488 -0.6617
vn -0.4089 0.6284 -0.6617
vn -0.4911 0.3568 -0.7947
vn -0.7240 0.1947 -0.6617
vn -0.7240 -0.1947 -0.6617
vn -0.4911 -0.3568 -0.7947
vn -0.4089 -0.6284 -0.6617
vn 0.7002 0.2680 -0.6617
vn 0.6071 -0.0000 -0.7947
vn 0.4253 -0.3090 -0.8507
vn -0.0000 -0.0000 -1.0000
vn 0.4253 0.3090 -0.8507
vn -0.0385 -0.7488 -0.6617
vn 0.1876 -0.5773 -0.7947
vn 0.4713 -0.5831 -0.6617
vn 0.5257 0.3819 0.7601
vn -0.2008 0.6180 0.7601
vn -0.6498 -0.0000 0.7601
vn -0.6497 -0.0000 0.7601
vn -0.2008 -0.6180 0.7601
vn 0.5257 -0.3819 0.7601
vn -0.0000 -0.0000 1.0000
vt 1.000000 0.500000
vt 0.000000 0.500000
vt 0.750000 0.490000
vt 0.000000 1.000000
vt 1.000000 1.000000
vt 0.968750 0.500000
vt 0.796822 0.485388
vt 0.968750 1.000000
vt 0.937500 0.500000
vt 0.841844 0.471731
vt 0.937500 1.000000
vt 0.906250 0.500000
vt 0.883337 0.449553
vt 0.906250 1.000000
vt 0.875000 0.500000
vt 0.919706 0.419706
vt 0.875000 1.000000
vt 0.843750 0.500000
vt 0.949553 0.383337
vt 0.843750 1.000000
vt 0.812500 0.500000
vt 0.971731 0.341844
vt 0.812500 1.000000
vt 0.781250 0.500000
vt 0.985388 0.296822
vt 0.781250 1.000000
vt 0.750000 0.500000
vt 0.990000 0.250000
vt 0.750000 1.000000
vt 0.718750 0.500000
vt 0.985388 0.203178
vt 0.718750 1.000000
vt 0.687500 0.500000
vt 0.971731 0.158156
vt 0.687500 1.000000
vt 0.656250 0.500000
vt 0.949553 0.116663
vt 0.656250 1.000000
vt 0.625000 0.500000
vt 0.919706 0.080294
vt 0.625000 1.000000
vt 0.593750 0.500000
vt 0.883337 0.050447
vt 0.593750 1.000000
vt 0.562500 0.500000
vt 0.841844 0.028269
vt 0.562500 1.000000
vt 0.531250 0.500000
vt 0.796822 0.014612
vt 0.531250 1.000000
vt 0.500000 0.500000
vt 0.750000 0.010000
vt 0.500000 1.000000
vt 0.468750 0.500000
vt 0.703178 0.014612
vt 0.468750 1.000000
vt 0.437500 0.500000
vt 0.658156 0.028269
vt 0.437500 1.000000
vt 0.406250 0.500000
vt 0.616663 0.050447
vt 0.406250 1.000000
vt 0.375000 0.500000
vt 0.580294 0.080294
vt 0.375000 1.000000
vt 0.343750 0.500000
vt 0.550447 0.116663
vt 0.343750 1.000000
vt 0.312500 0.500000
vt 0.528269 0.158156
vt 0.312500 1.000000
vt 0.281250 0.500000
vt 0.514612 0.203178
vt 0.281250 1.000000
vt 0.250000 0.500000
vt 0.510000 0.250000
vt 0.250000 1.000000
vt 0.218750 0.500000
vt 0.514612 0.296822
vt 0.218750 1.000000
vt 0.187500 0.500000
vt 0.528269 0.341844
vt 0.187500 1.000000
vt 0.156250 0.500000
vt 0.550447 0.383337
vt 0.156250 1.000000
vt 0.125000 0.500000
vt 0.580294 0.419706
vt 0.125000 1.000000
vt 0.093750 0.500000
vt 0.616663 0.449553
vt 0.093750 1.000000
vt 0.062500 0.500000
vt 0.658156 0.471731
vt 0.062500 1.000000
vt 0.031250 0.500000
vt 0.703178 0.485388
vt 0.031250 1.000000
vt 0.250000 0.490000
vt 1.000000 1.000000
vt 0.000000 1.000000
vt 0.296822 0.485388
vt 0.968750 1.000000
vt 0.341844 0.471731
vt 0.937500 1.000000
vt 0.383337 0.449553
vt 0.906250 1.000000
vt 0.419706 0.419706
vt 0.875000 1.000000
vt 0.449553 0.383337
vt 0.843750 1.000000
vt 0.471731 0.341844
vt 0.812500 1.000000
vt 0.485388 0.296822
vt 0.781250 1.000000
vt 0.490000 0.250000
vt 0.750000 1.000000
vt 0.485388 0.203178
vt 0.718750 1.000000
vt 0.471731 0.158156
vt 0.687500 1.000000
vt 0.449553 0.116663
vt 0.656250 1.000000
vt 0.419706 0.080294
vt 0.625000 1.000000
vt 0.383337 0.050447
vt 0.593750 1.000000
vt 0.341844 0.028269
vt 0.562500 1.000000
vt 0.296822 0.014612
vt 0.531250 1.000000
vt 0.250000 0.010000
vt 0.500000 1.000000
vt 0.203178 0.014612
vt 0.468750 1.000000
vt 0.158156 0.028269
vt 0.437500 1.000000
vt 0.116663 0.050447
vt 0.406250 1.000000
vt 0.080294 0.080294
vt 0.375000 1.000000
vt 0.050447 0.116663
vt 0.343750 1.000000
vt 0.028269 0.158156
vt 0.312500 1.000000
vt 0.014612 0.203178
vt 0.281250 1.000000
vt 0.010000 0.250000
vt 0.250000 1.000000
vt 0.014612 0.296822
vt 0.218750 1.000000
vt 0.028269 0.341844
vt 0.187500 1.000000
vt 0.050447 0.383337
vt 0.156250 1.000000
vt 0.080294 0.419706
vt 0.125000 1.000000
vt 0.116663 0.449553
vt 0.093750 1.000000
vt 0.158156 0.471731
vt 0.062500 1.000000
vt 0.203178 0.485388
vt 0.031250 1.000000
vt 0.218750 1.000000
vt 0.187500 1.000000
vt 0.906250 1.000000
vt 0.875000 1.000000
vt 0.625000 1.000000
vt 0.593750 1.000000
vt 0.343750 1.000000
vt 0.312500 1.000000
vt 0.062500 1.000000
vt 0.031250 1.000000
vt 0.750000 1.000000
vt 0.718750 1.000000
vt 0.468750 1.000000
vt 0.437500 1.000000
vt 0.156250 1.000000
vt 0.843750 1.000000
vt 0.562500 1.000000
vt 0.281250 1.000000
vt 0.000000 1.000000
vt 1.000000 1.000000
vt 0.968750 1.000000
vt 0.687500 1.000000
vt 0.406250 1.000000
vt 0.125000 1.000000
vt 0.812500 1.000000
vt 0.531250 1.000000
vt 0.250000 1.000000
vt 0.937500 1.000000
vt 0.656250 1.000000
vt 0.375000 1.000000
vt 0.093750 1.000000
vt 0.781250 1.000000
vt 0.500000 1.000000
vt 0.960647 0.935922
vt 0.029351 0.035321
vt 0.290411 0.683914
vt 0.064099 0.963088
vt 0.799443 0.574285
vt 0.795178 0.371532
vt 0.849364 0.766414
vt 0.133668 0.209203
vt 0.757850 0.936259
vt 0.493172 0.681565
vt 0.231996 0.043210
vt 0.231419 0.848541
vt 0.399453 0.512926
vt 0.059833 0.760335
vt 0.966763 0.459736
vt 0.774661 0.170180
vt 0.647614 0.778925
vt 0.556138 0.952871
vt 0.335759 0.204885
vt 0.434213 0.034794
vt 0.591396 0.504900
vt 0.494204 0.334082
vt 0.215004 0.647073
vt 0.039318 0.558985
vt 0.950347 0.258269
vt 0.072303 0.127708
vt 0.859345 0.946786
vt 0.786619 0.473212
vt 0.913983 0.845354
vt 0.804895 0.852008
vt 0.880324 0.416935
vt 0.051274 0.862015
vt 0.889090 0.525874
vt 0.391849 0.693435
vt 0.131011 0.028574
vt 0.181572 0.125483
vt 0.153746 0.914678
vt 0.335871 0.592735
vt 0.445053 0.597969
vt 0.144980 0.805739
vt 0.872489 0.314499
vt 0.036912 0.660912
vt 0.972256 0.357886
vt 0.702326 0.857858
vt 0.772256 0.272108
vt 0.747638 0.758949
vt 0.284294 0.123798
vt 0.658001 0.957250
vt 0.235007 0.220788
vt 0.495419 0.508428
vt 0.332613 0.026286
vt 0.554298 0.599913
vt 0.137145 0.703303
vt 0.435602 0.417513
vt 0.236913 0.746691
vt 0.864631 0.209932
vt 0.597625 0.863689
vt 0.389144 0.122219
vt 0.546952 0.417102
vt 0.129287 0.598736
vt 0.514133 0.754426
vt 0.868834 0.072499
vt 0.133491 0.461304
vt 0.972256 0.124339
vt 0.468136 0.234778
vt 0.460301 0.856823
vt 0.683989 0.405683
vt 0.526077 0.134650
vt 0.236913 0.513142
vt 0.626766 0.305142
vt 0.233497 0.427702
vt 0.712267 0.304044
vt 0.318880 0.314778
vt 0.728594 0.332731
vt 0.570159 0.207919
vt 0.300216 0.340467
vt 0.553628 0.236488
vt 0.413283 0.785401
vt 0.318880 0.366157
vt 0.428643 0.756185
vt 0.939332 0.024107
vt 0.349079 0.356344
vt 0.203989 0.412911
vt 0.968840 0.038897
vt 0.349079 0.324590
s 1
usemtl wood3
f 1/1/1 2/5/2 4/8/3 3/6/4
f 3/6/4 4/8/3 6/11/5 5/9/6
f 5/9/6 6/11/5 8/14/7 7/12/8
f 7/12/8 8/14/7 10/17/9 9/15/10
f 9/15/10 10/17/9 12/20/11 11/18/12
f 11/18/12 12/20/11 14/23/13 13/21/14
f 13/21/14 14/23/13 16/26/15 15/24/16
f 15/24/16 16/26/15 18/29/17 17/27/18
f 17/27/18 18/29/17 20/32/19 19/30/20
f 19/30/20 20/32/19 22/35/21 21/33/22
f 21/33/22 22/35/21 24/38/23 23/36/24
f 23/36/24 24/38/23 26/41/25 25/39/26
f 25/39/26 26/41/25 28/44/27 27/42/28
f 27/42/28 28/44/27 30/47/29 29/45/30
f 29/45/30 30/47/29 32/50/31 31/48/32
f 31/48/32 32/50/31 34/53/33 33/51/34
f 33/51/34 34/53/33 36/56/35 35/54/36
f 35/54/36 36/56/35 38/59/37 37/57/38
f 37/57/38 38/59/37 40/62/39 39/60/40
f 39/60/40 40/62/39 42/65/41 41/63/42
f 41/63/42 42/65/41 44/68/43 43/66/44
f 43/66/44 44/68/43 46/71/45 45/69/46
f 45/69/46 46/71/45 48/74/47 47/72/48
f 47/72/48 48/74/47 50/77/49 49/75/50
f 49/75/50 50/77/49 52/80/51 51/78/52
f 51/78/52 52/80/51 54/83/53 53/81/54
f 53/81/54 54/83/53 56/86/55 55/84/56
f 55/84/56 56/86/55 58/89/57 57/87/58
f 57/87/58 58/89/57 60/92/59 59/90/60
f 59/90/60 60/92/59 62/95/61 61/93/62
f 98/165/63 97/164/64 90/151/65 91/153/66
f 61/93/62 62/95/61 64/98/67 63/96/68
f 63/96/68 64/98/67 2/4/2 1/2/1
f 1/3/1 3/7/4 5/10/6 7/13/8 9/16/10 11/19/12 13/22/14 15/25/16 17/28/18 19/31/20 21/34/22 23/37/24 25/40/26 27/43/28 29/46/30 31/49/32 33/52/34 35/55/36 37/58/38 39/61/40 41/64/42 43/67/44 45/70/46 47/73/48 49/76/50 51/79/52 53/82/54 55/85/56 57/88/58 59/91/60 61/94/62 63/97/68
f 66/102/69 65/99/70 96/162/71 95/160/72 94/158/73 93/156/74 92/154/75 91/152/66 90/150/65 89/148/76 88/146/77 87/144/78 86/142/79 85/140/80 84/138/81 83/136/82 82/134/83 81/132/84 80/130/85 79/128/86 78/126/87 77/124/88 76/122/89 75/120/90 74/118/91 73/116/92 72/114/93 71/112/94 70/110/95 69/108/96 68/106/97 67/104/98
f 100/167/99 99/166/100 68/107/97 69/109/96
f 102/169/101 101/168/102 77/125/88 78/127/87
f 104/171/103 103/170/104 86/143/79 87/145/78
f 106/173/105 105/172/106 95/161/72 96/163/71
f 108/175/107 107/174/108 73/117/92 74/119/91
f 110/177/109 109/176/110 82/135/83 83/137/82
f 111/178/111 98/165/63 91/153/66 92/155/75
f 112/179/112 100/167/99 69/109/96 70/111/95
f 113/180/113 102/169/101 78/127/87 79/129/86
f 114/181/114 104/171/103 87/145/78 88/147/77
f 116/184/115 115/183/116 65/100/70 66/103/69
f 115/182/116 106/173/105 96/163/71 65/101/70
f 117/185/117 108/175/107 74/119/91 75/121/90
f 118/186/118 110/177/109 83/137/82 84/139/81
f 119/187/119 111/178/111 92/155/75 93/157/74
f 120/188/120 112/179/112 70/111/95 71/113/94
f 121/189/121 113/180/113 79/129/86 80/131/85
f 122/190/122 114/181/114 88/147/77 89/149/76
f 123/191/123 116/184/115 66/103/69 67/105/98
f 124/192/124 117/185/117 75/121/90 76/123/89
f 125/193/125 118/186/118 84/139/81 85/141/80
f 126/194/126 119/187/119 93/157/74 94/159/73
f 127/195/127 120/188/120 71/113/94 72/115/93
f 128/196/128 121/189/121 80/131/85 81/133/84
f 97/164/64 122/190/122 89/149/76 90/151/65
f 99/166/100 123/191/123 67/105/98 68/107/97
f 101/168/102 124/192/124 76/123/89 77/125/88
f 103/170/104 125/193/125 85/141/80 86/143/79
f 105/172/106 126/194/126 94/159/73 95/161/72
f 107/174/108 127/195/127 72/115/93 73/117/92
f 109/176/110 128/196/128 81/133/84 82/135/83
f 36/56/35 34/53/33 128/196/128 109/176/110
f 18/29/17 16/26/15 127/195/127 107/174/108
f 62/95/61 60/92/59 126/194/126 105/172/106
f 44/68/43 42/65/41 125/193/125 103/170/104
f 26/41/25 24/38/23 124/192/124 101/168/102
f 8/14/7 6/11/5 123/191/123 99/166/100
f 52/80/51 50/77/49 122/190/122 97/164/64
f 34/53/33 32/50/31 121/189/121 128/196/128
f 16/26/15 14/23/13 120/188/120 127/195/127
f 60/92/59 58/89/57 119/187/119 126/194/126
f 42/65/41 40/62/39 118/186/118 125/193/125
f 24/38/23 22/35/21 117/185/117 124/192/124
f 6/11/5 4/8/3 116/184/115 123/191/123
f 50/77/49 48/74/47 114/181/114 122/190/122
f 32/50/31 30/47/29 113/180/113 121/189/121
f 14/23/13 12/20/11 112/179/112 120/188/120
f 58/89/57 56/86/55 111/178/111 119/187/119
f 40/62/39 38/59/37 110/177/109 118/186/118
f 22/35/21 20/32/19 108/175/107 117/185/117
f 2/4/2 64/98/67 106/173/105 115/182/116
f 4/8/3 2/5/2 115/183/116 116/184/115
f 48/74/47 46/71/45 104/171/103 114/181/114
f 30/47/29 28/44/27 102/169/101 113/180/113
f 12/20/11 10/17/9 100/167/99 112/179/112
f 56/86/55 54/83/53 98/165/63 111/178/111
f 38/59/37 36/56/35 109/176/110 110/177/109
f 20/32/19 18/29/17 107/174/108 108/175/107
f 64/98/67 62/95/61 105/172/106 106/173/105
f 46/71/45 44/68/43 103/170/104 104/171/103
f 28/44/27 26/41/25 101/168/102 102/169/101
f 10/17/9 8/14/7 99/166/100 100/167/99
f 54/83/53 52/80/51 97/164/64 98/165/63
s 0
usemtl red
f 129/197/129 141/225/129 140/223/129
f 130/202/130 141/224/130 143/227/130
f 129/198/131 140/222/131 145/231/131
f 129/199/132 145/230/132 147/234/132
f 129/200/133 147/233/133 144/228/133
f 130/202/134 143/227/134 150/237/134
f 131/205/135 142/226/135 152/240/135
f 132/207/136 146/232/136 154/243/136
f 133/209/137 148/235/137 156/246/137
f 134/210/138 149/236/138 158/249/138
f 130/202/139 150/237/139 153/241/139
f 131/205/140 152/240/140 155/244/140
f 132/207/141 154/243/141 157/247/141
f 133/209/142 156/246/142 159/250/142
f 134/210/143 158/249/143 151/238/143
f 135/212/144 160/252/144 165/258/144
f 136/214/145 161/253/145 167/262/145
f 137/216/146 162/254/146 168/264/146
f 138/218/147 163/255/147 169/266/147
f 139/220/148 164/256/148 166/259/148
f 166/259/149 164/256/149 169/265/149
f 164/256/150 138/219/150 169/265/150
f 169/266/151 163/255/151 168/263/151
f 163/255/152 137/217/152 168/263/152
f 168/264/153 162/254/153 167/261/153
f 162/254/154 136/215/154 167/261/154
f 167/262/155 161/253/155 165/257/155
f 161/253/156 135/213/156 165/257/156
f 165/258/157 160/252/157 166/260/157
f 160/252/158 139/221/158 166/260/158
f 151/238/159 164/256/159 139/220/159
f 151/238/160 158/249/160 164/256/160
f 158/249/161 138/219/161 164/256/161
f 159/250/162 163/255/162 138/218/162
f 159/250/163 156/246/163 163/255/163
f 156/246/164 137/217/164 163/255/164
f 157/247/165 162/254/165 137/216/165
f 157/247/166 154/243/166 162/254/166
f 154/243/167 136/215/167 162/254/167
f 155/244/168 161/253/168 136/214/168
f 155/244/169 152/240/169 161/253/169
f 152/240/170 135/213/170 161/253/170
f 153/241/171 160/252/171 135/212/171
f 153/241/172 150/237/172 160/252/172
f 150/237/173 139/221/173 160/252/173
f 158/249/174 159/251/174 138/219/174
f 158/249/175 149/236/175 159/251/175
f 149/236/176 133/208/176 159/251/176
f 156/246/177 157/248/177 137/217/177
f 156/246/178 148/235/178 157/248/178
f 148/235/179 132/206/179 157/248/179
f 154/243/180 155/245/180 136/215/180
f 154/243/181 146/232/181 155/245/181
f 146/232/182 131/204/182 155/245/182
f 152/240/183 153/242/183 135/213/183
f 152/240/184 142/226/184 153/242/184
f 142/226/185 130/203/185 153/242/185
f 150/237/186 151/239/186 139/221/186
f 150/237/187 143/227/187 151/239/187
f 143/227/188 134/211/188 151/239/188
f 144/228/189 149/236/189 134/210/189
f 144/228/190 147/233/190 149/236/190
f 147/233/191 133/208/191 149/236/191
f 147/234/192 148/235/192 133/209/192
f 147/234/193 145/230/193 148/235/193
f 145/230/194 132/206/194 148/235/194
f 145/231/195 146/232/195 132/207/195
f 145/231/196 140/222/196 146/232/196
f 140/222/197 131/204/197 146/232/197
f 143/227/198 144/229/198 134/211/198
f 143/227/199 141/224/199 144/229/199
s 1
f 141/224/200 129/201/201 144/229/202
s 0
f 140/223/203 142/226/203 131/205/203
f 140/223/204 141/225/204 142/226/204
f 141/225/205 130/203/205 142/226/205
f 166/259/206 169/265/206 170/267/206
f 166/259/206 170/267/206 174/279/206
f 169/266/207 168/263/207 171/270/207
f 169/266/207 171/270/207 170/268/207
f 168/264/208 167/261/208 172/273/208
f 168/264/209 172/273/209 171/271/209
f 167/262/210 165/257/210 173/276/210
f 167/262/210 173/276/210 172/274/210
f 165/258/211 166/260/211 174/280/211
f 165/258/211 174/280/211 173/277/211
f 171/272/212 174/281/212 170/269/212
f 174/281/212 171/272/212 172/275/212
f 174/281/212 172/275/212 173/278/212
